<mxfile host="Electron" modified="2023-10-12T13:56:47.049Z" agent="Mozilla/5.0 (Windows NT 10.0; Win64; x64) AppleWebKit/537.36 (KHTML, like Gecko) draw.io/22.0.2 Chrome/114.0.5735.289 Electron/25.8.4 Safari/537.36" etag="2aPjYzvktd-2UYm1aRGo" version="22.0.2" type="device">
  <diagram name="Page-1" id="ttHY_fMzUIhBQ_IgSN3Q">
    <mxGraphModel dx="545" dy="380" grid="1" gridSize="10" guides="1" tooltips="1" connect="1" arrows="1" fold="1" page="0" pageScale="1" pageWidth="827" pageHeight="1169" math="0" shadow="0">
      <root>
        <mxCell id="0" />
        <mxCell id="1" parent="0" />
        <mxCell id="J4wZt5-fuqx4MmnRO9rP-1" value="HetznerClient" style="rounded=0;whiteSpace=wrap;html=1;" vertex="1" parent="1">
          <mxGeometry x="80" y="120" width="90" height="160" as="geometry" />
        </mxCell>
        <mxCell id="J4wZt5-fuqx4MmnRO9rP-2" value="CloudClient" style="rounded=0;whiteSpace=wrap;html=1;" vertex="1" parent="1">
          <mxGeometry x="200" y="120" width="90" height="40" as="geometry" />
        </mxCell>
      </root>
    </mxGraphModel>
  </diagram>
</mxfile>
